<svg width="93" height="93" viewBox="0 0 93 93" fill="none" xmlns="http://www.w3.org/2000/svg">
<path d="M32.9375 60.0625C47.9182 60.0625 60.0625 47.9182 60.0625 32.9375C60.0625 17.9568 47.9182 5.8125 32.9375 5.8125C17.9568 5.8125 5.8125 17.9568 5.8125 32.9375C5.8125 47.9182 17.9568 60.0625 32.9375 60.0625Z" fill="#0163B3"/>
<path d="M32.9375 54.25C44.7081 54.25 54.25 44.7081 54.25 32.9375C54.25 21.1669 44.7081 11.625 32.9375 11.625C21.1669 11.625 11.625 21.1669 11.625 32.9375C11.625 44.7081 21.1669 54.25 32.9375 54.25Z" fill="#EEEEEE"/>
<path d="M31 15.5H34.875V32.9375H31V15.5Z" fill="#5590E5"/>
<path d="M43.894 40.5985L40.606 43.8864L31.2905 34.5729L34.5785 31.2849L43.894 40.5985Z" fill="#5590E5"/>
<path d="M32.9375 36.8125C35.0776 36.8125 36.8125 35.0776 36.8125 32.9375C36.8125 30.7974 35.0776 29.0625 32.9375 29.0625C30.7974 29.0625 29.0625 30.7974 29.0625 32.9375C29.0625 35.0776 30.7974 36.8125 32.9375 36.8125Z" fill="#5590E5"/>
<path d="M32.9375 34.875C34.0076 34.875 34.875 34.0076 34.875 32.9375C34.875 31.8674 34.0076 31 32.9375 31C31.8674 31 31 31.8674 31 32.9375C31 34.0076 31.8674 34.875 32.9375 34.875Z" fill="#0163B3"/>
<path d="M23.0564 81.3751L50.9564 34.6813C52.5064 32.1625 56.1876 32.1625 57.5439 34.6813L85.4439 81.3751C86.9939 83.8938 85.0564 87.1876 82.1501 87.1876H26.3501C23.4439 87.1876 21.5064 83.8938 23.0564 81.3751Z" fill="#FFC107"/>
<path d="M51.1499 77.3063C51.1499 76.9188 51.1499 76.5312 51.3437 76.1437C51.5374 75.7562 51.7312 75.5625 51.9249 75.175C52.1187 74.7875 52.5062 74.7875 52.8937 74.5938C53.2812 74.4 53.6687 74.4 54.0562 74.4C54.4437 74.4 55.0249 74.4 55.4124 74.5938C55.7999 74.7875 56.1874 74.9812 56.3812 75.175C56.5749 75.3687 56.7687 75.7562 56.9624 76.1437C57.1562 76.5312 57.1562 76.9188 57.1562 77.3063C57.1562 77.6938 57.1562 78.0812 56.9624 78.4688C56.7687 78.8563 56.5749 79.05 56.3812 79.4375C56.1874 79.825 55.7999 79.825 55.4124 80.0187C55.0249 80.2125 54.6374 80.2125 54.0562 80.2125C53.4749 80.2125 53.0874 80.2125 52.8937 80.0187C52.6999 79.825 52.1187 79.6313 51.9249 79.4375C51.7312 79.2437 51.5374 78.8563 51.3437 78.4688C51.1499 78.0812 51.1499 77.6938 51.1499 77.3063ZM56.5749 71.3H52.1187L51.3437 52.3125H57.1562L56.5749 71.3Z" fill="#263238"/>
</svg>
