<svg width="24" height="24" viewBox="0 0 24 24" fill="none" xmlns="http://www.w3.org/2000/svg">
<path d="M10.0109 13.353C9.43594 12.8791 9.08594 12.2351 9.08594 11.5126C9.08594 10.0653 10.4979 8.89868 12.2499 8.89868C13.1169 8.89868 13.9149 9.18848 14.4799 9.66239" stroke="#667085" stroke-linecap="round" stroke-linejoin="round"/>
<path d="M15.3554 11.9758C15.1234 13.0409 14.1074 13.8814 12.8184 14.0746" stroke="#667085" stroke-linecap="round" stroke-linejoin="round"/>
<path d="M6.905 15.917C5.318 14.8883 3.974 13.3856 3 11.5123C3.984 9.63064 5.337 8.11973 6.934 7.08274C8.521 6.04575 10.352 5.48267 12.25 5.48267C14.159 5.48267 15.989 6.054 17.586 7.09843" stroke="#667085" stroke-linecap="round" stroke-linejoin="round"/>
<path d="M19.6978 8.91455C20.3858 9.66918 20.9908 10.5402 21.4998 11.512C19.5328 15.2744 16.0568 17.5407 12.2498 17.5407C11.3868 17.5407 10.5358 17.4252 9.71777 17.1998" stroke="#667085" stroke-linecap="round" stroke-linejoin="round"/>
<path d="M20.1373 5L4.36328 18.0235" stroke="#667085" stroke-linecap="round" stroke-linejoin="round"/>
</svg>
