<svg width="24" height="24" viewBox="0 0 24 24" fill="none" xmlns="http://www.w3.org/2000/svg">
<path d="M21.3504 11.2148C19.4118 7.34298 16.0121 5 12.25 5C8.48787 5 5.0824 7.34298 3.16107 11.2148C3.06024 11.3976 3.05598 11.6185 3.14956 11.8052C5.08815 15.677 8.48787 18.02 12.25 18.02C16.0121 18.02 19.4176 15.7081 21.3504 11.8052L21.3529 11.8002C21.4454 11.6158 21.4445 11.3984 21.3504 11.2148ZM12.25 16.746C9.32129 16.746 6.60897 15.1502 4.84046 12.4135C4.48367 11.8614 4.48367 11.1524 4.84046 10.6003C6.60897 7.86363 9.32129 6.26782 12.25 6.26782C15.1738 6.26782 17.8538 7.86332 19.6381 10.5879C20.0039 11.1464 20.0042 11.8676 19.6387 12.4262C17.8535 15.1551 15.169 16.746 12.25 16.746Z" fill="#667085"/>
<path d="M11.9781 9.00007C11.3852 9.00367 10.8068 9.15363 10.316 9.431C9.82531 9.70837 9.44421 10.1007 9.22089 10.5585C8.99757 11.0162 8.94204 11.5189 9.06133 12.0029C9.18061 12.4869 9.46934 12.9307 9.89107 13.278C10.3128 13.6254 10.8486 13.8608 11.4308 13.9546C12.013 14.0483 12.6155 13.9962 13.1621 13.8048C13.7088 13.6134 14.1751 13.2913 14.5022 12.8791C14.8293 12.467 15.0025 11.9833 15 11.4891C14.9983 11.1602 14.9187 10.8348 14.7658 10.5316C14.6129 10.2283 14.3897 9.9532 14.1089 9.72197C13.8282 9.49074 13.4955 9.30795 13.1298 9.18407C12.7642 9.0602 12.3728 8.99767 11.9781 9.00007ZM11.9781 13.2712C11.5593 13.2676 11.151 13.161 10.8047 12.9646C10.4584 12.7683 10.1893 12.4911 10.0314 12.1678C9.87355 11.8445 9.83381 11.4896 9.91721 11.1475C10.0006 10.8054 10.2034 10.4915 10.5002 10.2452C10.797 9.99891 11.1745 9.83117 11.5853 9.76306C11.9961 9.69496 12.4219 9.72953 12.8092 9.86243C13.1966 9.99533 13.5281 10.2206 13.7623 10.5101C13.9964 10.7995 14.1227 11.1401 14.1253 11.4891C14.1265 11.724 14.0717 11.9568 13.9641 12.1739C13.8565 12.3911 13.6982 12.5882 13.4985 12.754C13.2988 12.9198 13.0615 13.0508 12.8005 13.1396C12.5395 13.2284 12.26 13.2731 11.9781 13.2712Z" fill="#667085"/>
</svg>
