<svg width="25" height="25" viewBox="0 0 25 25" fill="none" xmlns="http://www.w3.org/2000/svg">
<path d="M21.8504 11.7148C19.9118 7.84298 16.5121 5.5 12.75 5.5C8.98787 5.5 5.5824 7.84298 3.66107 11.7148C3.56024 11.8976 3.55598 12.1185 3.64956 12.3052C5.58815 16.177 8.98787 18.52 12.75 18.52C16.5121 18.52 19.9176 16.2081 21.8504 12.3052L21.8529 12.3002C21.9454 12.1158 21.9445 11.8984 21.8504 11.7148ZM12.75 17.246C9.82129 17.246 7.10897 15.6502 5.34046 12.9135C4.98367 12.3614 4.98367 11.6524 5.34046 11.1003C7.10897 8.36363 9.82129 6.76782 12.75 6.76782C15.6738 6.76782 18.3538 8.36332 20.1381 11.0879C20.5039 11.6464 20.5042 12.3676 20.1387 12.9262C18.3535 15.6551 15.669 17.246 12.75 17.246Z" fill="#5A5A5A"/>
<path d="M12.4781 9.50007C11.8852 9.50367 11.3068 9.65363 10.816 9.931C10.3253 10.2084 9.94421 10.6007 9.72089 11.0585C9.49757 11.5162 9.44204 12.0189 9.56133 12.5029C9.68061 12.9869 9.96934 13.4307 10.3911 13.778C10.8128 14.1254 11.3486 14.3608 11.9308 14.4546C12.513 14.5483 13.1155 14.4962 13.6621 14.3048C14.2088 14.1134 14.6751 13.7913 15.0022 13.3791C15.3293 12.967 15.5025 12.4833 15.5 11.9891C15.4983 11.6602 15.4187 11.3348 15.2658 11.0316C15.1129 10.7283 14.8897 10.4532 14.6089 10.222C14.3282 9.99074 13.9955 9.80795 13.6298 9.68407C13.2642 9.5602 12.8728 9.49767 12.4781 9.50007ZM12.4781 13.7712C12.0593 13.7676 11.651 13.661 11.3047 13.4646C10.9584 13.2683 10.6893 12.9911 10.5314 12.6678C10.3736 12.3445 10.3338 11.9896 10.4172 11.6475C10.5006 11.3054 10.7034 10.9915 11.0002 10.7452C11.297 10.4989 11.6745 10.3312 12.0853 10.2631C12.4961 10.195 12.9219 10.2295 13.3092 10.3624C13.6966 10.4953 14.0281 10.7206 14.2623 11.0101C14.4964 11.2995 14.6227 11.6401 14.6253 11.9891C14.6265 12.224 14.5717 12.4568 14.4641 12.6739C14.3565 12.8911 14.1982 13.0882 13.9985 13.254C13.7988 13.4198 13.5615 13.5508 13.3005 13.6396C13.0395 13.7284 12.76 13.7731 12.4781 13.7712Z" fill="#5A5A5A"/>
</svg>
